<svg width="305" height="305" viewBox="0 0 305 305" fill="none" xmlns="http://www.w3.org/2000/svg">
<mask id="mask0_13_888" style="mask-type:alpha" maskUnits="userSpaceOnUse" x="0" y="0" width="305" height="305">
<path d="M0 152.5C0 26.9162 26.9162 0 152.5 0C278.084 0 305 26.9162 305 152.5C305 278.084 278.084 305 152.5 305C26.9162 305 0 278.084 0 152.5Z" fill="#C4C4C4"/>
</mask>
<g mask="url(#mask0_13_888)">
<rect width="305" height="305" transform="translate(-1)" fill="#FACA30"/>
<path d="M152.377 183.81C136.718 183.81 123.975 171.065 123.975 155.402C123.975 154.136 122.951 153.111 121.684 153.111C120.421 153.111 119.393 154.136 119.393 155.402C119.393 173.592 134.191 188.393 152.377 188.393C153.647 188.393 154.668 187.372 154.668 186.102C154.668 184.832 153.647 183.81 152.377 183.81Z" fill="black"/>
<path d="M212.251 140.343C211.698 140.343 211.158 140.391 210.623 140.46C203.964 114.504 180.377 95.2642 152.377 95.2642C119.227 95.2642 92.2515 122.239 92.2515 155.402C92.2515 188.56 119.227 215.541 152.377 215.541C180.377 215.541 203.964 196.301 210.623 170.345C211.158 170.411 211.698 170.455 212.251 170.455H231.266C233.479 170.455 235.556 169.883 237.382 168.902C239.977 167.073 243.208 163.235 243.208 155.399C243.208 147.29 240.502 143.867 237.36 141.89C235.537 140.909 233.469 140.343 231.266 140.343H212.251ZM204.998 163.597C204.788 164.964 204.511 166.306 204.197 167.639C198.654 191.124 177.533 208.666 152.377 208.666C123.013 208.666 99.1273 184.769 99.1273 155.402C99.1273 126.036 123.013 102.138 152.377 102.138C177.533 102.138 198.65 119.674 204.197 143.166C204.511 144.492 204.788 145.838 204.998 147.205C205.413 149.88 205.633 152.618 205.633 155.402C205.633 158.187 205.413 160.928 204.998 163.597ZM237.372 153.328V157.471C237.372 160.84 234.629 163.581 231.266 163.581H212.251C212.144 163.581 212.044 163.553 211.937 163.549C212.298 160.881 212.506 158.165 212.506 155.399C212.506 152.633 212.301 149.918 211.937 147.249C212.041 147.24 212.141 147.214 212.251 147.214H231.266C234.629 147.221 237.372 149.962 237.372 153.328Z" fill="black"/>
<path d="M193.858 155.399C193.858 132.486 175.289 113.913 152.377 113.913C129.471 113.913 110.899 132.486 110.899 155.399C110.899 178.313 129.471 196.886 152.377 196.886C175.289 196.886 193.858 178.313 193.858 155.399ZM154.668 124.697C154.668 125.963 153.646 126.988 152.377 126.988C136.718 126.988 123.975 139.734 123.975 155.396C123.975 156.663 122.95 157.687 121.684 157.687C120.421 157.687 119.393 156.663 119.393 155.396C119.393 137.207 134.191 122.405 152.377 122.405C153.646 122.409 154.668 123.43 154.668 124.697Z" fill="black"/>
<path d="M76.3064 229.672V240.07C76.3064 241.12 77.1643 241.975 78.2139 241.975C79.2635 241.975 80.1214 241.12 80.1214 240.07V233.394C78.8173 232.187 77.5477 230.942 76.3064 229.672Z" fill="black"/>
<path d="M152.377 49C130.367 49 109.9 55.7232 92.9144 67.2178C94.338 69.1162 95.5887 71.285 96.6948 73.5858C112.574 62.7451 131.743 56.3896 152.377 56.3896C206.962 56.3896 251.369 100.802 251.369 155.399C251.369 209.993 206.962 254.409 152.377 254.409C127.334 254.409 104.447 245.042 86.9971 229.647V239.234C105.048 253.353 127.74 261.798 152.377 261.798C211.035 261.798 258.757 214.063 258.757 155.399C258.757 96.7321 211.035 49 152.377 49Z" fill="black"/>
<path d="M96.6949 73.589C95.5856 71.2882 94.338 69.1194 92.9144 67.2209C89.2628 62.349 84.5899 59.121 78.9743 59.121C63.9814 59.121 55.6883 82.1541 55.6883 98.0773C55.6883 101.811 56.21 105.134 57.1245 108.11C50.0193 122.365 46 138.423 46 155.406C46 180.557 54.7896 203.681 69.4305 221.912V240.07C69.4305 244.91 73.3712 248.852 78.2138 248.852C83.0533 248.852 86.9971 244.91 86.9971 240.07V239.237V229.65V122.179C96.7451 119.265 102.267 110.641 102.267 98.0742C102.27 90.4332 100.34 81.1766 96.6949 73.589ZM69.4305 209.345C59.3022 193.815 53.388 175.289 53.388 155.402C53.388 141.488 56.2854 128.242 61.4894 116.217C63.6012 118.627 66.2471 120.476 69.4305 121.667V209.345ZM82.9716 116.072C81.328 116.358 80.1244 117.785 80.1244 119.457V222.974V233.391V240.067C80.1244 241.116 79.2665 241.971 78.2169 241.971C77.1674 241.971 76.3094 241.116 76.3094 240.067V229.669V218.671V119.137C76.3094 117.556 75.2284 116.179 73.6949 115.799C69.6693 114.805 66.7625 112.533 64.9179 109.1C63.4252 106.328 62.627 102.795 62.5861 98.4671C62.583 98.3288 62.5641 98.2094 62.5641 98.0711C62.5641 83.6314 70.1376 65.9919 78.9806 65.9919C81.988 65.9919 84.8351 68.0601 87.3019 71.3196C88.6815 73.1458 89.9353 75.3397 91.0289 77.7882C93.7158 83.8231 95.4002 91.2913 95.4002 98.0711C95.3939 108.585 91.2175 114.642 82.9716 116.072Z" fill="black"/>
</g>
</svg>
