<?xml version="1.0" encoding="UTF-8"?>
<svg width="69px" height="68px" viewBox="0 0 69 68" version="1.1" xmlns="http://www.w3.org/2000/svg" xmlns:xlink="http://www.w3.org/1999/xlink">
    <!-- Generator: Sketch 53.2 (72643) - https://sketchapp.com -->
    <title>Untitled 2</title>
    <desc>Created with Sketch.</desc>
    <g id="Page-1" stroke="none" stroke-width="1" fill="none" fill-rule="evenodd">
        <g id="icon" fill="#2C3E50" fill-rule="nonzero">
            <path d="M34.5,42.954 C29.517,42.954 25.462,38.899 25.462,33.916 C25.462,33.513 25.136,33.187 24.733,33.187 C24.331,33.187 24.004,33.513 24.004,33.916 C24.004,39.703 28.713,44.412 34.5,44.412 C34.904,44.412 35.229,44.087 35.229,43.683 C35.229,43.279 34.904,42.954 34.5,42.954 Z" id="Shape"></path>
            <path d="M53.553,29.125 C53.377,29.125 53.205,29.14 53.035,29.162 C50.916,20.904 43.41,14.783 34.5,14.783 C23.951,14.783 15.367,23.365 15.367,33.916 C15.367,44.465 23.951,53.049 34.5,53.049 C43.41,53.049 50.916,46.928 53.035,38.67 C53.205,38.691 53.377,38.705 53.553,38.705 L59.604,38.705 C60.308,38.705 60.969,38.523 61.55,38.211 C62.376,37.629 63.404,36.408 63.404,33.915 C63.404,31.335 62.543,30.246 61.543,29.617 C60.963,29.305 60.305,29.125 59.604,29.125 L53.553,29.125 L53.553,29.125 Z M51.245,36.523 C51.178,36.958 51.09,37.385 50.99,37.809 C49.226,45.281 42.505,50.862 34.5,50.862 C25.156,50.862 17.555,43.259 17.555,33.916 C17.555,24.573 25.156,16.97 34.5,16.97 C42.505,16.97 49.225,22.549 50.99,30.023 C51.09,30.445 51.178,30.873 51.245,31.308 C51.377,32.159 51.447,33.03 51.447,33.916 C51.447,34.802 51.377,35.674 51.245,36.523 Z M61.547,33.256 L61.547,34.574 C61.547,35.646 60.674,36.518 59.604,36.518 L53.553,36.518 C53.519,36.518 53.487,36.509 53.453,36.508 C53.568,35.659 53.634,34.795 53.634,33.915 C53.634,33.035 53.569,32.171 53.453,31.322 C53.486,31.319 53.518,31.311 53.553,31.311 L59.604,31.311 C60.674,31.313 61.547,32.185 61.547,33.256 Z" id="Shape"></path>
            <path d="M47.7,33.915 C47.7,26.625 41.791,20.716 34.5,20.716 C27.211,20.716 21.301,26.625 21.301,33.915 C21.301,41.205 27.211,47.114 34.5,47.114 C41.791,47.114 47.7,41.205 47.7,33.915 Z M35.229,24.147 C35.229,24.55 34.904,24.876 34.5,24.876 C29.517,24.876 25.462,28.931 25.462,33.914 C25.462,34.317 25.136,34.643 24.733,34.643 C24.331,34.643 24.004,34.317 24.004,33.914 C24.004,28.127 28.713,23.418 34.5,23.418 C34.904,23.419 35.229,23.744 35.229,24.147 Z" id="Shape"></path>
            <g id="Shape">
                <path d="M10.293,57.545 L10.293,60.853 C10.293,61.187 10.566,61.459 10.9,61.459 C11.234,61.459 11.507,61.187 11.507,60.853 L11.507,58.729 C11.092,58.345 10.688,57.949 10.293,57.545 Z" id="Path"></path>
                <path d="M34.5,0.064 C27.496,0.064 20.983,2.203 15.578,5.86 C16.031,6.464 16.429,7.154 16.781,7.886 C21.834,4.437 27.934,2.415 34.5,2.415 C51.87,2.415 66.001,16.545 66.001,33.915 C66.001,51.284 51.87,65.415 34.5,65.415 C26.531,65.415 19.248,62.435 13.695,57.537 L13.695,60.587 C19.439,65.079 26.66,67.766 34.5,67.766 C53.166,67.766 68.352,52.579 68.352,33.915 C68.352,15.25 53.166,0.064 34.5,0.064 Z" id="Path"></path>
                <path d="M16.781,7.887 C16.428,7.155 16.031,6.465 15.578,5.861 C14.416,4.311 12.929,3.284 11.142,3.284 C6.371,3.284 3.732,10.612 3.732,15.678 C3.732,16.866 3.898,17.923 4.189,18.87 C1.928,23.405 0.649,28.514 0.649,33.917 C0.649,41.919 3.446,49.276 8.105,55.076 L8.105,60.853 C8.105,62.393 9.359,63.647 10.9,63.647 C12.44,63.647 13.695,62.393 13.695,60.853 L13.695,60.588 L13.695,57.538 L13.695,23.346 C16.797,22.419 18.554,19.675 18.554,15.677 C18.555,13.246 17.941,10.301 16.781,7.887 Z M8.105,51.078 C4.882,46.137 3,40.243 3,33.916 C3,29.489 3.922,25.275 5.578,21.449 C6.25,22.216 7.092,22.804 8.105,23.183 L8.105,51.078 Z M12.414,21.403 C11.891,21.494 11.508,21.948 11.508,22.48 L11.508,55.414 L11.508,58.728 L11.508,60.852 C11.508,61.186 11.235,61.458 10.901,61.458 C10.567,61.458 10.294,61.186 10.294,60.852 L10.294,57.544 L10.294,54.045 L10.294,22.378 C10.294,21.875 9.95,21.437 9.462,21.316 C8.181,21 7.256,20.277 6.669,19.185 C6.194,18.303 5.94,17.179 5.927,15.802 C5.926,15.758 5.92,15.72 5.92,15.676 C5.92,11.082 8.33,5.47 11.144,5.47 C12.101,5.47 13.007,6.128 13.792,7.165 C14.231,7.746 14.63,8.444 14.978,9.223 C15.833,11.143 16.369,13.519 16.369,15.676 C16.367,19.021 15.038,20.948 12.414,21.403 Z"></path>
            </g>
        </g>
    </g>
</svg>