<?xml version="1.0" encoding="UTF-8"?>
<svg xmlns="http://www.w3.org/2000/svg" xmlns:xlink="http://www.w3.org/1999/xlink" width="163px" height="163px" viewBox="0 0 163 163" version="1.1">
  <title>icon</title>
  <g id="Page-1" stroke="none" stroke-width="1" fill="none" fill-rule="evenodd">
    <g id="icon" fill-rule="nonzero">
      <path d="M0,81.5006436 C0,36.487025 36.4885998,0 81.498713,0 C126.5114,0 163,36.487025 163,81.5006436 C163,126.509114 126.5114,163 81.498713,163 C36.4885998,163 0,126.509114 0,81.5006436 Z" id="Shape" fill="#284A9F"></path>
      <g transform="translate(48.000000, 42.000000)" fill="#FFFFFF" id="Shape">
        <path d="M35,13 C53.2542805,13 68,27.7379233 68,45.9823213 C68,64.2267194 53.2188898,79 35,79 C16.7811102,79 2,64.2620767 2,46.0176787 C2,27.7732806 16.7811102,13 35,13 Z M35,69.2572183 C47.8675715,69.2572183 58.2529122,58.8426469 58.2529122,46.0176787 C58.2529122,33.1939297 47.8321807,22.778139 35,22.778139 C22.1678193,22.778139 11.7470878,33.1927106 11.7470878,46.0176787 C11.7470878,58.8414276 22.1678193,69.2572183 35,69.2572183 Z"></path>
        <path d="M35.7511843,26.410324 L35.7511843,44.2946054 C35.7511843,44.8068795 36.2675339,45.1718906 36.7140104,44.9163828 L51.643145,36.6872723 C51.9865884,36.5047668 52.0908058,36.065495 51.9178998,35.6992252 C48.822171,29.9207231 43.0771898,25.971052 36.4380713,25.7142857 C36.0946279,25.7142857 35.75,26.0062946 35.75,26.4090653 L35.7511843,26.410324 Z M12.8145906,14.6546225 L10.8347,12.6944122 C8.88948144,10.7685293 5.76421942,10.7685293 3.82019644,12.6944122 L1.45891392,15.0334071 C-0.48630464,16.95929 -0.48630464,20.0546704 1.45891392,21.9805533 L3.40413248,23.9064363 C3.71618045,24.2165662 4.16811198,24.1467278 4.44548796,23.8377816 C5.59205502,22.2894995 6.84144248,20.811056 8.23071351,19.4355944 C9.65465654,18.0258054 11.1132716,16.7876532 12.7105746,15.6524832 C13.0572945,15.446519 13.0931621,14.9647524 12.8145906,14.6546225 Z M47.125,8.86045631 L47.125,4.94960956 C47.125,2.2157097 44.772817,0 41.8689654,0 L29.6310345,0 C26.7271829,0 24.375,2.2157097 24.375,4.94960956 L24.375,8.96528558 C24.375,9.41557498 24.8165879,9.72648907 25.293604,9.62285103 C28.7111651,8.68772625 32.3134594,8.2040821 35.9511818,8.2040821 C39.4421302,8.2040821 42.8976501,8.65437148 46.2418242,9.51921301 C46.6834121,9.62285103 47.1237348,9.31193694 47.1237348,8.86164756 L47.125,8.86045631 Z"></path>
      </g>
    </g>
  </g>
</svg>
