
<svg width="94px" height="94px" viewBox="0 0 94 94" version="1.1" xmlns="http://www.w3.org/2000/svg" xmlns:xlink="http://www.w3.org/1999/xlink">
    <g id="Page-1" stroke="none" stroke-width="1" fill="none" fill-rule="evenodd">
        <g id="Artboard" transform="translate(-387.000000, -30.000000)">
            <g id="craft-scout" transform="translate(387.000000, 30.000000)">
                <circle id="background" fill="#4DC0B5" cx="47" cy="47" r="47"></circle>
                <g id="icon" transform="translate(26.000000, 23.000000)" fill="#FFFFFF" fill-rule="nonzero">
                    <path d="M21.5,8 C32.8397803,8 42,17.1553766 42,28.4890178 C42,39.822659 32.8177952,49 21.5,49 C10.1822048,49 1,39.8446234 1,28.5109822 C1,17.177341 10.1822048,8 21.5,8 Z M21.5,42.9476659 C29.4934914,42.9476659 35.9449909,36.4780079 35.9449909,28.5109822 C35.9449909,20.5447139 29.4715062,14.0742985 21.5,14.0742985 C13.5284938,14.0742985 7.05500906,20.5439566 7.05500906,28.5109822 C7.05500906,36.4772505 13.5284938,42.9476659 21.5,42.9476659 Z" id="Shape"></path>
                    <path d="M22.0007288,16.4330905 L22.0007288,27.5610878 C22.0007288,27.8798361 22.3184824,28.1069541 22.5932372,27.9479715 L31.7803969,22.8276361 C31.9917467,22.7140771 32.0558805,22.4407524 31.9494768,22.2128512 C30.0444129,18.6173388 26.5090399,16.1597657 22.4234285,16 C22.2120787,16 22,16.1816944 22,16.4323073 L22.0007288,16.4330905 Z M7.88590188,9.11843177 L6.66750769,7.89874537 C5.47045012,6.70041821 3.54721195,6.70041821 2.35089012,7.89874537 L0.897793182,9.35411997 C-0.299264394,10.5524471 -0.299264394,12.4784616 0.897793182,13.6767887 L2.09485076,14.8751159 C2.28688028,15.0680856 2.56499199,15.0246306 2.7356849,14.8323974 C3.44126463,13.8690219 4.21011845,12.9491015 5.06505447,12.0932587 C5.9413271,11.2160567 6.83893634,10.4456509 7.82189204,9.73932286 C8.03525817,9.6111674 8.05733053,9.31140148 7.88590188,9.11843177 Z M29,5.51317281 L29,3.07975706 C29,1.37866381 27.5525028,0 25.7655172,0 L18.2344828,0 C16.4474972,0 15,1.37866381 15,3.07975706 L15,5.57839991 C15,5.85857998 15.2717464,6.05203764 15.5652948,5.98755175 C17.6684093,5.40569633 19.8852058,5.10476219 22.1238042,5.10476219 C24.2720801,5.10476219 26.3985539,5.38494225 28.4565072,5.92306587 C28.7282536,5.98755175 28.9992214,5.79409409 28.9992214,5.51391403 L29,5.51317281 Z" id="Shape"></path>
                </g>
            </g>
        </g>
    </g>
</svg>