<svg xmlns:dc="http://purl.org/dc/elements/1.1/" xmlns:cc="http://creativecommons.org/ns#" xmlns:rdf="http://www.w3.org/1999/02/22-rdf-syntax-ns#" xmlns:svg="http://www.w3.org/2000/svg" xmlns="http://www.w3.org/2000/svg" xmlns:sodipodi="http://sodipodi.sourceforge.net/DTD/sodipodi-0.dtd" xmlns:inkscape="http://www.inkscape.org/namespaces/inkscape" viewBox="0 0 333.33269 333.33269" version="1.1" x="0px" y="0px"><path d="m 196.66629,151.66637 c 11.03248,-16.54497 37.49993,-52.499894 37.49993,-52.499894 0,0 -35.95493,26.467444 -52.4999,37.499924 L 169.49384,46.696579 c 61.68738,1.522498 115.64978,52.004898 117.13478,117.157271 z m -59.99988,29.99995 c -11.03248,16.54497 -37.499933,52.4999 -37.499933,52.4999 0,0 35.954933,-26.46745 52.499903,-37.49993 l 12.18747,89.96233 c -58.29739,-1.56 -115.664774,-51.9224 -117.149771,-117.14978 z m 44.99991,14.99997 c 16.54497,11.03248 52.4999,37.49993 52.4999,37.49993 0,0 -26.46745,-35.95493 -37.49993,-52.4999 l 89.96233,-12.13498 c -1.5,65.12988 -58.92739,115.43228 -117.14978,117.08978 z M 46.696579,163.85385 C 48.166576,98.701477 102.17397,48.249076 163.85385,46.696579 L 151.66638,136.6664 C 135.12141,125.63392 99.166477,99.166476 99.166477,99.166476 c 0,0 26.467453,35.954924 37.499933,52.499894 z m -30.029942,2.81249 18.749964,1.755 c 1.034998,69.80237 59.692383,128.45976 129.494749,129.49475 l 1.755,18.74997 1.755,-18.74997 C 238.14871,296.8511 296.7761,238.26871 297.88609,168.55634 l 18.77997,-1.89 -18.77997,-1.76249 C 296.7761,95.153983 238.21621,36.421599 168.45135,35.416601 l -1.785,-18.749964 -1.89,18.749964 C 95.063985,36.519099 36.489099,95.191483 35.416601,164.91885 Z" style="" fill="#000000" fill-opacity="1" stroke="none"></path></svg>