<svg width="305" height="305" viewBox="0 0 305 305" fill="none" xmlns="http://www.w3.org/2000/svg">
<mask id="mask0_13_762" style="mask-type:alpha" maskUnits="userSpaceOnUse" x="0" y="0" width="305" height="305">
<path d="M0 152.5C0 26.9162 26.9162 0 152.5 0C278.084 0 305 26.9162 305 152.5C305 278.084 278.084 305 152.5 305C26.9162 305 0 278.084 0 152.5Z" fill="#C4C4C4"/>
</mask>
<g mask="url(#mask0_13_762)">
<rect width="305" height="305" fill="#FACA30"/>
<path d="M154.208 74.7468C200.735 74.7468 238.319 110.738 238.319 155.292C238.319 199.846 200.644 235.923 154.208 235.923C107.772 235.923 70.0977 199.932 70.0977 155.378C70.0977 110.824 107.772 74.7468 154.208 74.7468ZM154.208 212.13C187.005 212.13 213.475 186.697 213.475 155.378C213.475 124.062 186.915 98.6256 154.208 98.6256C121.501 98.6256 94.941 124.059 94.941 155.378C94.941 186.694 121.501 212.13 154.208 212.13Z" fill="black"/>
<path d="M156.123 107.496V151.17C156.123 152.421 157.439 153.313 158.577 152.689L196.628 132.593C197.503 132.147 197.769 131.074 197.328 130.18C189.438 116.068 174.795 106.423 157.873 105.796C156.998 105.796 156.12 106.509 156.12 107.493L156.123 107.496ZM97.6618 78.7875L92.6155 74.0005C87.6575 69.2974 79.6918 69.2974 74.7369 74.0005L68.7185 79.7125C63.7605 84.4156 63.7605 91.9747 68.7185 96.6779L73.6765 101.381C74.4718 102.138 75.6237 101.968 76.3307 101.213C79.253 97.4323 82.4375 93.8219 85.9785 90.4629C89.6078 87.0201 93.3255 83.9965 97.3967 81.2243C98.2804 80.7214 98.3719 79.5449 97.6618 78.7875ZM185.112 64.6378V55.0873C185.112 48.4109 179.117 43 171.716 43H140.524C133.122 43 127.127 48.4109 127.127 55.0873V64.8938C127.127 65.9934 128.253 66.7527 129.468 66.4996C138.179 64.216 147.361 63.0349 156.632 63.0349C165.53 63.0349 174.338 64.1345 182.861 66.2465C183.987 66.4996 185.109 65.7403 185.109 64.6407L185.112 64.6378Z" fill="black"/>
</g>
</svg>
