<svg version="1.1" id="Layer_1" xmlns="http://www.w3.org/2000/svg" x="0" y="0" viewBox="0 0 94 94" xml:space="preserve">
  <style>
    .st1{fill:#fff}
  </style>
  <circle id="background" cx="47" cy="47" r="47" fill-rule="evenodd" clip-rule="evenodd" fill="#4dc0b5"/>
  <g id="icon" transform="translate(26 23)">
    <path id="Shape" class="st1" d="M21 5c11.3 0 20.5 9.2 20.5 20.5S32.3 46 21 46 .5 36.8.5 25.5 9.7 5 21 5zm0 34.9c8 0 14.4-6.5 14.4-14.4 0-8-6.5-14.4-14.4-14.4S6.6 17.5 6.6 25.5 13 39.9 21 39.9z"/>
    <path id="Shape_1_" class="st1" d="M21.5 13.4v11.1c0 .3.3.5.6.4l9.2-5.1c.2-.1.3-.4.2-.6-1.9-3.6-5.4-6.1-9.5-6.2-.3 0-.5.2-.5.4zM7.4 6.1L6.2 4.9C5 3.7 3 3.7 1.9 4.9L.4 6.4C-.8 7.6-.8 9.5.4 10.7l1.2 1.2c.2.2.5.1.6 0 .7-1 1.5-1.9 2.3-2.7.9-.9 1.8-1.6 2.8-2.4.2-.2.3-.5.1-.7zm21.1-3.6V.1c0-1.7-1.4-3.1-3.2-3.1h-7.5C16-3 14.6-1.6 14.6.1v2.5c0 .3.3.5.6.4 2.1-.6 4.3-.9 6.6-.9 2.1 0 4.3.3 6.3.8.1.1.4-.1.4-.4z"/>
  </g>
</svg>
